<svg xmlns="http://www.w3.org/2000/svg" xmlns:xlink="http://www.w3.org/1999/xlink" width="514" zoomAndPan="magnify" viewBox="0 0 385.5 68.999997" height="92" preserveAspectRatio="xMidYMid meet" version="1.0"><defs><g/><clipPath id="6db28f0290"><path d="M 0 12.292969 L 53 12.292969 L 53 51.242188 L 0 51.242188 Z M 0 12.292969 " clip-rule="nonzero"/></clipPath></defs><g clip-path="url(#6db28f0290)"><path fill="#053d7b" d="M 21.457031 28.058594 L 15.753906 22.359375 L 7.261719 30.851562 L 6.011719 29.605469 L 15.753906 19.859375 L 22.703125 26.8125 L 37.210938 12.304688 L 52.96875 28.058594 L 50.175781 30.851562 L 48.925781 29.605469 L 50.472656 28.058594 L 37.210938 14.800781 L 13.222656 38.789062 L 15.753906 41.316406 C 22.886719 34.1875 30.015625 27.058594 37.148438 19.925781 L 37.210938 19.859375 L 52.96875 35.617188 L 37.210938 51.371094 L 27.46875 41.628906 L 28.71875 40.382812 L 37.210938 48.875 L 50.472656 35.617188 L 40.992188 26.136719 L 31.511719 35.617188 L 37.210938 41.320312 L 45.707031 32.824219 L 46.953125 34.070312 L 37.210938 43.8125 L 30.261719 36.863281 L 15.753906 51.371094 L 0 35.617188 L 2.792969 32.824219 L 4.039062 34.074219 L 2.496094 35.617188 L 15.753906 48.878906 L 39.742188 24.890625 L 37.210938 22.359375 C 30.082031 29.488281 22.949219 36.621094 15.820312 43.75 L 15.753906 43.816406 L 0 28.058594 L 15.753906 12.304688 L 25.496094 22.046875 L 24.25 23.292969 L 15.753906 14.800781 L 2.496094 28.058594 L 11.976562 37.539062 Z M 21.457031 28.058594 " fill-opacity="1" fill-rule="evenodd"/></g><g fill="#053d7b" fill-opacity="1"><g transform="translate(64.097539, 41.634384)"><g><path d="M 7.921875 0 L 2.546875 0 L 2.546875 -26.734375 L 7.921875 -26.734375 Z M 7.921875 0 "/></g></g></g><g fill="#053d7b" fill-opacity="1"><g transform="translate(74.474823, 41.634384)"><g><path d="M 18.9375 -8.890625 L 18.9375 -26.734375 L 23.9375 -26.734375 L 23.9375 0 L 18.515625 0 L 7.765625 -17.4375 L 7.765625 0 L 2.765625 0 L 2.765625 -26.734375 L 7.984375 -26.734375 Z M 18.9375 -8.890625 "/></g></g></g><g fill="#053d7b" fill-opacity="1"><g transform="translate(101.425913, 41.634384)"><g><path d="M 21.171875 -24.234375 C 23.785156 -21.890625 25.09375 -18.15625 25.09375 -13.03125 C 25.09375 -8.726562 23.9375 -5.351562 21.625 -2.90625 C 19.800781 -0.96875 17 0 13.21875 0 L 2.6875 0 L 2.6875 -26.734375 L 13.109375 -26.734375 C 15.003906 -26.734375 16.570312 -26.539062 17.8125 -26.15625 C 19.0625 -25.769531 20.179688 -25.128906 21.171875 -24.234375 Z M 19.53125 -13.328125 C 19.53125 -15.890625 19.222656 -17.8125 18.609375 -19.09375 C 18.003906 -20.382812 17.128906 -21.226562 15.984375 -21.625 C 14.835938 -22.019531 13.269531 -22.21875 11.28125 -22.21875 L 8.0625 -22.21875 L 8.0625 -4.515625 L 12.546875 -4.515625 C 14.210938 -4.515625 15.535156 -4.734375 16.515625 -5.171875 C 17.503906 -5.609375 18.253906 -6.460938 18.765625 -7.734375 C 19.273438 -9.003906 19.53125 -10.867188 19.53125 -13.328125 Z M 19.53125 -13.328125 "/></g></g></g><g fill="#053d7b" fill-opacity="1"><g transform="translate(128.377002, 41.634384)"><g><path d="M 7.921875 0 L 2.546875 0 L 2.546875 -26.734375 L 7.921875 -26.734375 Z M 7.921875 0 "/></g></g></g><g fill="#053d7b" fill-opacity="1"><g transform="translate(138.754286, 41.634384)"><g><path d="M 26.84375 0 L 20.953125 0 L 18.640625 -6.046875 L 7.953125 -6.046875 L 5.75 0 L 0 0 L 10.421875 -26.734375 L 16.125 -26.734375 Z M 9.59375 -10.5625 L 16.921875 -10.5625 L 13.21875 -20.5 Z M 9.59375 -10.5625 "/></g></g></g><g fill="#053d7b" fill-opacity="1"><g transform="translate(165.705376, 41.634384)"><g><path d="M 18.9375 -8.890625 L 18.9375 -26.734375 L 23.9375 -26.734375 L 23.9375 0 L 18.515625 0 L 7.765625 -17.4375 L 7.765625 0 L 2.765625 0 L 2.765625 -26.734375 L 7.984375 -26.734375 Z M 18.9375 -8.890625 "/></g></g></g><g fill="#053d7b" fill-opacity="1"><g transform="translate(192.656466, 41.634384)"><g/></g></g><g fill="#053d7b" fill-opacity="1"><g transform="translate(203.033749, 41.634384)"><g><path d="M 14.234375 -27.1875 C 16.960938 -27.1875 19.273438 -26.519531 21.171875 -25.1875 C 23.066406 -23.851562 24.328125 -21.90625 24.953125 -19.34375 L 19.609375 -18.078125 C 19.285156 -19.472656 18.625 -20.566406 17.625 -21.359375 C 16.625 -22.160156 15.40625 -22.5625 13.96875 -22.5625 C 11.875 -22.5625 10.238281 -21.816406 9.0625 -20.328125 C 7.894531 -18.847656 7.3125 -16.59375 7.3125 -13.5625 C 7.3125 -10.769531 7.789062 -8.507812 8.75 -6.78125 C 9.707031 -5.050781 11.421875 -4.1875 13.890625 -4.1875 C 15.460938 -4.1875 16.734375 -4.679688 17.703125 -5.671875 C 18.671875 -6.671875 19.367188 -8.054688 19.796875 -9.828125 L 25.015625 -8.171875 C 24.296875 -5.265625 22.976562 -3.097656 21.0625 -1.671875 C 19.144531 -0.253906 16.765625 0.453125 13.921875 0.453125 C 11.515625 0.453125 9.390625 -0.101562 7.546875 -1.21875 C 5.703125 -2.34375 4.273438 -3.925781 3.265625 -5.96875 C 2.253906 -8.007812 1.75 -10.398438 1.75 -13.140625 C 1.75 -15.578125 2.171875 -17.859375 3.015625 -19.984375 C 3.867188 -22.117188 5.226562 -23.851562 7.09375 -25.1875 C 8.957031 -26.519531 11.335938 -27.1875 14.234375 -27.1875 Z M 14.234375 -27.1875 "/></g></g></g><g fill="#053d7b" fill-opacity="1"><g transform="translate(229.984839, 41.634384)"><g><path d="M 26.84375 0 L 20.953125 0 L 18.640625 -6.046875 L 7.953125 -6.046875 L 5.75 0 L 0 0 L 10.421875 -26.734375 L 16.125 -26.734375 Z M 9.59375 -10.5625 L 16.921875 -10.5625 L 13.21875 -20.5 Z M 9.59375 -10.5625 "/></g></g></g><g fill="#053d7b" fill-opacity="1"><g transform="translate(256.935929, 41.634384)"><g><path d="M 18.5625 -26.109375 C 19.90625 -25.535156 21.007812 -24.625 21.875 -23.375 C 22.75 -22.132812 23.1875 -20.515625 23.1875 -18.515625 C 23.1875 -16.578125 22.753906 -14.96875 21.890625 -13.6875 C 21.035156 -12.40625 19.953125 -11.488281 18.640625 -10.9375 C 17.296875 -10.363281 15.15625 -10.078125 12.21875 -10.078125 L 8.109375 -10.078125 L 8.109375 0 L 2.71875 0 L 2.71875 -26.734375 L 12.03125 -26.734375 C 13.738281 -26.734375 15.101562 -26.691406 16.125 -26.609375 C 17.144531 -26.523438 17.957031 -26.359375 18.5625 -26.109375 Z M 17.625 -18.453125 C 17.625 -20.046875 16.84375 -21.175781 15.28125 -21.84375 C 14.707031 -22.09375 13.5 -22.21875 11.65625 -22.21875 L 8.109375 -22.21875 L 8.109375 -14.59375 L 11.65625 -14.59375 C 13.5 -14.59375 14.953125 -14.847656 16.015625 -15.359375 C 17.085938 -15.867188 17.625 -16.898438 17.625 -18.453125 Z M 17.625 -18.453125 "/></g></g></g><g fill="#053d7b" fill-opacity="1"><g transform="translate(281.833938, 41.634384)"><g><path d="M 7.921875 0 L 2.546875 0 L 2.546875 -26.734375 L 7.921875 -26.734375 Z M 7.921875 0 "/></g></g></g><g fill="#053d7b" fill-opacity="1"><g transform="translate(292.211209, 41.634384)"><g><path d="M 22 -22.21875 L 14.078125 -22.21875 L 14.078125 0 L 8.703125 0 L 8.703125 -22.21875 L 0.78125 -22.21875 L 0.78125 -26.734375 L 22 -26.734375 Z M 22 -22.21875 "/></g></g></g><g fill="#053d7b" fill-opacity="1"><g transform="translate(315.018844, 41.634384)"><g><path d="M 26.84375 0 L 20.953125 0 L 18.640625 -6.046875 L 7.953125 -6.046875 L 5.75 0 L 0 0 L 10.421875 -26.734375 L 16.125 -26.734375 Z M 9.59375 -10.5625 L 16.921875 -10.5625 L 13.21875 -20.5 Z M 9.59375 -10.5625 "/></g></g></g><g fill="#053d7b" fill-opacity="1"><g transform="translate(341.969934, 41.634384)"><g><path d="M 8.25 -4.515625 L 21.703125 -4.515625 L 21.703125 0 L 2.875 0 L 2.875 -26.734375 L 8.25 -26.734375 Z M 8.25 -4.515625 "/></g></g></g></svg>