<svg xmlns="http://www.w3.org/2000/svg" xmlns:xlink="http://www.w3.org/1999/xlink" width="493" zoomAndPan="magnify" viewBox="0 0 369.75 57.749997" height="77" preserveAspectRatio="xMidYMid meet" version="1.0"><defs><g/><clipPath id="d824779500"><path d="M 0.671875 9.355469 L 64.148438 9.355469 L 64.148438 56.402344 L 0.671875 56.402344 Z M 0.671875 9.355469 " clip-rule="nonzero"/></clipPath></defs><g clip-path="url(#d824779500)"><path fill="#38b6ff" d="M 26.441406 28.285156 L 19.59375 21.4375 L 9.394531 31.640625 L 7.894531 30.140625 L 19.59375 18.441406 L 27.941406 26.785156 L 45.363281 9.363281 L 64.285156 28.285156 L 60.929688 31.640625 L 59.429688 30.140625 L 61.285156 28.285156 L 45.363281 12.363281 L 16.554688 41.167969 L 19.59375 44.210938 C 28.15625 35.644531 36.71875 27.082031 45.285156 18.519531 L 45.363281 18.441406 L 64.285156 37.363281 L 45.363281 56.285156 L 33.664062 44.582031 L 35.160156 43.085938 L 45.363281 53.285156 L 61.285156 37.363281 L 49.902344 25.976562 L 38.515625 37.363281 L 45.363281 44.210938 L 55.5625 34.007812 L 57.0625 35.507812 L 45.363281 47.207031 L 37.015625 38.859375 L 19.59375 56.285156 L 0.671875 37.363281 L 4.027344 34.007812 L 5.523438 35.507812 L 3.667969 37.363281 L 19.59375 53.289062 L 48.402344 24.480469 L 45.363281 21.4375 C 36.796875 30.003906 28.234375 38.566406 19.671875 47.128906 L 19.59375 47.207031 L 0.671875 28.285156 L 19.59375 9.363281 L 31.292969 21.0625 L 29.792969 22.5625 L 19.59375 12.363281 L 3.671875 28.285156 L 15.054688 39.671875 Z M 26.441406 28.285156 " fill-opacity="1" fill-rule="evenodd"/></g><g fill="#38b6ff" fill-opacity="1"><g transform="translate(75.948633, 39.014676)"><g><path d="M 2.6875 -22.625 L 7.921875 -22.625 L 7.921875 0 L 2.6875 0 Z M 2.6875 -22.625 "/></g></g></g><g fill="#38b6ff" fill-opacity="1"><g transform="translate(86.546223, 39.014676)"><g><path d="M 23.421875 -22.625 L 23.421875 0 L 19.125 0 L 7.859375 -13.734375 L 7.859375 0 L 2.6875 0 L 2.6875 -22.625 L 7.015625 -22.625 L 18.25 -8.890625 L 18.25 -22.625 Z M 23.421875 -22.625 "/></g></g></g><g fill="#38b6ff" fill-opacity="1"><g transform="translate(112.652474, 39.014676)"><g><path d="M 2.6875 -22.625 L 12.953125 -22.625 C 15.410156 -22.625 17.582031 -22.15625 19.46875 -21.21875 C 21.351562 -20.28125 22.816406 -18.957031 23.859375 -17.25 C 24.910156 -15.550781 25.4375 -13.570312 25.4375 -11.3125 C 25.4375 -9.050781 24.910156 -7.066406 23.859375 -5.359375 C 22.816406 -3.660156 21.351562 -2.34375 19.46875 -1.40625 C 17.582031 -0.46875 15.410156 0 12.953125 0 L 2.6875 0 Z M 12.703125 -4.296875 C 14.960938 -4.296875 16.765625 -4.925781 18.109375 -6.1875 C 19.453125 -7.445312 20.125 -9.15625 20.125 -11.3125 C 20.125 -13.46875 19.453125 -15.175781 18.109375 -16.4375 C 16.765625 -17.695312 14.960938 -18.328125 12.703125 -18.328125 L 7.921875 -18.328125 L 7.921875 -4.296875 Z M 12.703125 -4.296875 "/></g></g></g><g fill="#38b6ff" fill-opacity="1"><g transform="translate(139.340299, 39.014676)"><g><path d="M 2.6875 -22.625 L 7.921875 -22.625 L 7.921875 0 L 2.6875 0 Z M 2.6875 -22.625 "/></g></g></g><g fill="#38b6ff" fill-opacity="1"><g transform="translate(149.937889, 39.014676)"><g><path d="M 17.578125 -4.84375 L 7.078125 -4.84375 L 5.078125 0 L -0.296875 0 L 9.796875 -22.625 L 14.953125 -22.625 L 25.078125 0 L 19.578125 0 Z M 15.9375 -8.828125 L 12.34375 -17.484375 L 8.75 -8.828125 Z M 15.9375 -8.828125 "/></g></g></g><g fill="#38b6ff" fill-opacity="1"><g transform="translate(174.687126, 39.014676)"><g><path d="M 23.421875 -22.625 L 23.421875 0 L 19.125 0 L 7.859375 -13.734375 L 7.859375 0 L 2.6875 0 L 2.6875 -22.625 L 7.015625 -22.625 L 18.25 -8.890625 L 18.25 -22.625 Z M 23.421875 -22.625 "/></g></g></g><g fill="#38b6ff" fill-opacity="1"><g transform="translate(200.793377, 39.014676)"><g/></g></g><g fill="#38b6ff" fill-opacity="1"><g transform="translate(209.937023, 39.014676)"><g><path d="M 13.5 0.390625 C 11.195312 0.390625 9.113281 -0.109375 7.25 -1.109375 C 5.382812 -2.117188 3.921875 -3.507812 2.859375 -5.28125 C 1.796875 -7.0625 1.265625 -9.070312 1.265625 -11.3125 C 1.265625 -13.550781 1.796875 -15.554688 2.859375 -17.328125 C 3.921875 -19.109375 5.382812 -20.5 7.25 -21.5 C 9.113281 -22.5 11.207031 -23 13.53125 -23 C 15.5 -23 17.273438 -22.65625 18.859375 -21.96875 C 20.441406 -21.28125 21.769531 -20.289062 22.84375 -19 L 19.484375 -15.890625 C 17.953125 -17.660156 16.054688 -18.546875 13.796875 -18.546875 C 12.398438 -18.546875 11.148438 -18.238281 10.046875 -17.625 C 8.953125 -17.007812 8.097656 -16.148438 7.484375 -15.046875 C 6.867188 -13.953125 6.5625 -12.707031 6.5625 -11.3125 C 6.5625 -9.90625 6.867188 -8.648438 7.484375 -7.546875 C 8.097656 -6.453125 8.953125 -5.597656 10.046875 -4.984375 C 11.148438 -4.378906 12.398438 -4.078125 13.796875 -4.078125 C 16.054688 -4.078125 17.953125 -4.96875 19.484375 -6.75 L 22.84375 -3.65625 C 21.769531 -2.34375 20.4375 -1.335938 18.84375 -0.640625 C 17.25 0.046875 15.46875 0.390625 13.5 0.390625 Z M 13.5 0.390625 "/></g></g></g><g fill="#38b6ff" fill-opacity="1"><g transform="translate(233.620044, 39.014676)"><g><path d="M 17.578125 -4.84375 L 7.078125 -4.84375 L 5.078125 0 L -0.296875 0 L 9.796875 -22.625 L 14.953125 -22.625 L 25.078125 0 L 19.578125 0 Z M 15.9375 -8.828125 L 12.34375 -17.484375 L 8.75 -8.828125 Z M 15.9375 -8.828125 "/></g></g></g><g fill="#38b6ff" fill-opacity="1"><g transform="translate(258.369281, 39.014676)"><g><path d="M 12.46875 -22.625 C 14.476562 -22.625 16.21875 -22.285156 17.6875 -21.609375 C 19.164062 -20.941406 20.300781 -19.992188 21.09375 -18.765625 C 21.894531 -17.546875 22.296875 -16.09375 22.296875 -14.40625 C 22.296875 -12.75 21.894531 -11.300781 21.09375 -10.0625 C 20.300781 -8.820312 19.164062 -7.875 17.6875 -7.21875 C 16.21875 -6.5625 14.476562 -6.234375 12.46875 -6.234375 L 7.921875 -6.234375 L 7.921875 0 L 2.6875 0 L 2.6875 -22.625 Z M 12.1875 -10.5 C 13.757812 -10.5 14.953125 -10.835938 15.765625 -11.515625 C 16.585938 -12.191406 17 -13.15625 17 -14.40625 C 17 -15.675781 16.585938 -16.648438 15.765625 -17.328125 C 14.953125 -18.015625 13.757812 -18.359375 12.1875 -18.359375 L 7.921875 -18.359375 L 7.921875 -10.5 Z M 12.1875 -10.5 "/></g></g></g><g fill="#38b6ff" fill-opacity="1"><g transform="translate(282.019996, 39.014676)"><g><path d="M 2.6875 -22.625 L 7.921875 -22.625 L 7.921875 0 L 2.6875 0 Z M 2.6875 -22.625 "/></g></g></g><g fill="#38b6ff" fill-opacity="1"><g transform="translate(292.617586, 39.014676)"><g><path d="M 7.375 -18.359375 L 0.125 -18.359375 L 0.125 -22.625 L 19.84375 -22.625 L 19.84375 -18.359375 L 12.609375 -18.359375 L 12.609375 0 L 7.375 0 Z M 7.375 -18.359375 "/></g></g></g><g fill="#38b6ff" fill-opacity="1"><g transform="translate(312.584983, 39.014676)"><g><path d="M 17.578125 -4.84375 L 7.078125 -4.84375 L 5.078125 0 L -0.296875 0 L 9.796875 -22.625 L 14.953125 -22.625 L 25.078125 0 L 19.578125 0 Z M 15.9375 -8.828125 L 12.34375 -17.484375 L 8.75 -8.828125 Z M 15.9375 -8.828125 "/></g></g></g><g fill="#38b6ff" fill-opacity="1"><g transform="translate(337.334207, 39.014676)"><g><path d="M 2.6875 -22.625 L 7.921875 -22.625 L 7.921875 -4.265625 L 19.265625 -4.265625 L 19.265625 0 L 2.6875 0 Z M 2.6875 -22.625 "/></g></g></g></svg>